<svg xmlns="http://www.w3.org/2000/svg" viewBox="0 0 800 400">
  <defs>
    <linearGradient id="bg" x1="0" y1="0" x2="1" y2="1">
      <stop offset="0%" stop-color="#e7f1ff"/>
      <stop offset="100%" stop-color="#f3e8ff"/>
    </linearGradient>
    <linearGradient id="accent" x1="0" y1="0" x2="1" y2="1">
      <stop offset="0%" stop-color="#0d6efd"/>
      <stop offset="100%" stop-color="#6610f2"/>
    </linearGradient>
  </defs>
  <rect width="800" height="400" rx="24" fill="url(#bg)"/>
  <g transform="translate(60,60)">
    <rect x="0" y="0" width="320" height="220" rx="12" fill="#ffffff" stroke="#e2e8f0"/>
    <rect x="20" y="24" width="280" height="20" rx="4" fill="#e9ecef"/>
    <rect x="20" y="64" width="220" height="16" rx="4" fill="#f1f3f5"/>
    <rect x="20" y="92" width="260" height="16" rx="4" fill="#f1f3f5"/>
    <rect x="20" y="120" width="200" height="16" rx="4" fill="#f1f3f5"/>
    <rect x="20" y="160" width="120" height="24" rx="6" fill="url(#accent)"/>
  </g>
  <g transform="translate(420,40)">
    <rect x="0" y="0" width="320" height="280" rx="12" fill="#ffffff" stroke="#e2e8f0"/>
    <path d="M30 220 L70 180 L120 200 L180 140 L250 160 L290 110" stroke="url(#accent)" stroke-width="6" fill="none" stroke-linecap="round"/>
    <g fill="#dee2e6">
      <rect x="30" y="24" width="80" height="14" rx="3"/>
      <rect x="120" y="24" width="50" height="14" rx="3"/>
      <rect x="180" y="24" width="40" height="14" rx="3"/>
    </g>
    <g fill="#f8f9fa" stroke="#e9ecef">
      <rect x="30" y="60" width="60" height="40" rx="6"/>
      <rect x="110" y="60" width="60" height="40" rx="6"/>
      <rect x="190" y="60" width="60" height="40" rx="6"/>
      <rect x="270" y="60" width="20" height="40" rx="6"/>
    </g>
  </g>
  <circle cx="120" cy="330" r="26" fill="url(#accent)"/>
  <rect x="160" y="314" width="220" height="32" rx="8" fill="#ffffff" stroke="#e2e8f0"/>
  <rect x="400" y="314" width="80" height="32" rx="8" fill="#0d6efd"/>
  <rect x="492" y="314" width="120" height="32" rx="8" fill="#6610f2"/>
</svg>

