<?xml version="1.0" encoding="UTF-8"?>
<svg version="1.1" xmlns="http://www.w3.org/2000/svg" width="254" height="254">
<path d="M0 0 C0.72202103 0.2165625 1.44404205 0.433125 2.1879425 0.65625 C4.56572543 1.37106337 6.94064654 2.09493637 9.31567383 2.81884766 C11.00904534 3.32973635 12.70259689 3.84002859 14.39631653 4.34976196 C18.87019936 5.69783043 23.34175159 7.05347052 27.81280518 8.41088867 C32.21942344 9.74759298 36.62790672 11.0781101 41.03637695 12.40869141 C46.26116526 13.98587936 51.48586172 15.56336023 56.70968628 17.14373779 C74.23325992 22.44326183 91.78154127 27.65905333 109.33520508 32.85791016 C109.33520508 33.51791016 109.33520508 34.17791016 109.33520508 34.85791016 C108.67367432 35.13127197 108.01214355 35.40463379 107.33056641 35.6862793 C86.51382043 44.30918849 65.8387471 53.24869874 45.17797852 62.23803711 C30.34637864 68.69021657 15.49830343 75.10108423 0.61352539 81.4296875 C-0.04964188 81.71244537 -0.71280914 81.99520325 -1.39607239 82.28652954 C-3.13405534 83.02754841 -4.87289538 83.76655623 -6.61181641 84.50537109 C-11.99850019 86.61605464 -11.99850019 86.61605464 -16.66479492 89.85791016 C-16.79000462 92.65699722 -16.85088215 95.43261345 -16.87011719 98.2331543 C-16.88001678 99.11112167 -16.88991638 99.98908905 -16.90011597 100.8936615 C-16.93182919 103.8101019 -16.95652703 106.72655863 -16.98120117 109.64306641 C-17.00176223 111.65946386 -17.02275846 113.67585692 -17.04417419 115.69224548 C-17.09948251 121.01051282 -17.14885302 126.32881961 -17.19702148 131.64715576 C-17.24717272 137.06965667 -17.30289199 142.49209998 -17.3581543 147.91455078 C-17.46584295 158.56228809 -17.56726398 169.21007531 -17.66479492 179.85791016 C-21.55822024 178.59867072 -24.95620573 177.28174459 -28.46557617 175.17041016 C-29.79649292 174.37618652 -29.79649292 174.37618652 -31.15429688 173.56591797 C-32.08588623 173.00227539 -33.01747559 172.43863281 -33.97729492 171.85791016 C-35.93547833 170.68578465 -37.89381358 169.51391278 -39.85229492 168.34228516 C-41.3121582 167.46540039 -41.3121582 167.46540039 -42.80151367 166.57080078 C-47.72826734 163.62348635 -52.68862208 160.73351232 -57.6484375 157.84228516 C-62.55567201 154.96703306 -62.55567201 154.96703306 -63.66479492 153.85791016 C-63.78645741 151.293167 -63.84339927 148.75486383 -63.85766602 146.1887207 C-63.86993225 144.98381989 -63.86993225 144.98381989 -63.88244629 143.75457764 C-63.90734835 141.08460243 -63.9238287 138.41468056 -63.93823242 135.74462891 C-63.9435561 134.83483591 -63.94887978 133.92504292 -63.95436478 132.98768044 C-63.98111759 128.17205268 -64.00048542 123.35645103 -64.01489258 118.54077148 C-64.03154365 113.56027451 -64.07631892 108.58043887 -64.12726402 103.60019207 C-64.16088321 99.77664917 -64.17246418 95.95326419 -64.17811966 92.12958717 C-64.18484721 90.29351562 -64.20010818 88.45745501 -64.22401047 86.62152672 C-64.25555113 84.05222761 -64.25571604 81.48472423 -64.24829102 78.9152832 C-64.26469635 78.15512405 -64.28110168 77.3949649 -64.29800415 76.61177063 C-64.25438926 72.92884719 -64.00974148 71.22694859 -61.45710754 68.49603271 C-58.79897876 66.9366297 -56.28193329 65.68771283 -53.40429688 64.59057617 C-51.85607742 63.99266518 -51.85607742 63.99266518 -50.27658081 63.38267517 C-49.16332428 62.96329178 -48.05006775 62.54390839 -46.90307617 62.11181641 C-45.73535675 61.66371109 -44.56763733 61.21560577 -43.36453247 60.75392151 C-40.22000489 59.54914415 -37.07266259 58.35236068 -33.9237175 57.15921783 C-30.67940016 55.92776553 -27.43900556 54.68608038 -24.19824219 53.4453125 C-19.06382072 51.48091069 -13.92730531 49.52210127 -8.78881836 47.56835938 C-2.63207496 45.22714781 3.52082414 42.87609794 9.67114258 40.51806641 C17.22287904 37.62357259 24.77739849 34.73651961 32.33520508 31.85791016 C7.70447466 23.41505033 -16.94686363 15.04225239 -41.66479492 6.85791016 C-40.21085244 3.95002519 -38.42659678 3.89507539 -35.37963867 2.87744141 C-33.12328517 2.13333904 -30.86400501 1.39806871 -28.60229492 0.67041016 C-27.48145508 0.28949219 -26.36061523 -0.09142578 -25.20581055 -0.48388672 C-24.10817383 -0.83902344 -23.01053711 -1.19416016 -21.87963867 -1.56005859 C-20.88053467 -1.88772217 -19.88143066 -2.21538574 -18.85205078 -2.55297852 C-12.40090662 -3.74536541 -6.1632989 -1.89737455 0 0 Z " fill="#4B7198" transform="translate(136.664794921875,35.14208984375)"/>
<path d="M0 0 C0 21.12 0 42.24 0 64 C-18.47769417 73.23884708 -18.47769417 73.23884708 -25.19921875 76.5078125 C-25.9670015 76.88179169 -26.73478424 77.25577087 -27.52583313 77.64108276 C-29.11735096 78.41594449 -30.70907991 79.19037273 -32.30102539 79.96435547 C-34.69691247 81.12957768 -37.09164643 82.29714669 -39.48632812 83.46484375 C-65.22546028 96 -65.22546028 96 -68 96 C-68 87.75 -68 79.5 -68 71 C-57.4375 65.75 -57.4375 65.75 -54.15014648 64.12011719 C-50.00830615 62.0551025 -45.90072359 59.9871655 -41.91015625 57.640625 C-39 56 -39 56 -37 56 C-37.33 52.7 -37.66 49.4 -38 46 C-38.66829834 46.32162109 -39.33659668 46.64324219 -40.02514648 46.97460938 C-43.16224066 48.48381622 -46.29987 49.99190747 -49.4375 51.5 C-50.48744141 52.0053125 -51.53738281 52.510625 -52.61914062 53.03125 C-61.72310612 57.40552771 -70.86005644 61.69885009 -80 66 C-80 85.47 -80 104.94 -80 125 C-90.08558265 130.04279133 -100.16758172 135.07951391 -110.3125 140 C-110.90796631 140.29213379 -111.50343262 140.58426758 -112.11694336 140.88525391 C-113.86298534 141.74160652 -115.61307244 142.58969607 -117.36328125 143.4375 C-118.88369019 144.17806641 -118.88369019 144.17806641 -120.43481445 144.93359375 C-123 146 -123 146 -126 146 C-126.09267962 134.6126486 -126.1637548 123.22538692 -126.20724869 111.83773518 C-126.2281236 106.54997244 -126.25643978 101.26246774 -126.30175781 95.97485352 C-126.34521856 90.87201081 -126.36913783 85.76941631 -126.37950897 80.66640282 C-126.3868999 78.71952596 -126.40133266 76.77266269 -126.42292023 74.82589149 C-126.45195721 72.09887968 -126.45595588 69.37289348 -126.45410156 66.64575195 C-126.46848267 65.84086334 -126.48286377 65.03597473 -126.49768066 64.20669556 C-126.46988065 60.42841408 -126.16133128 58.25091319 -124.09703064 55.04037476 C-122.02748921 53.02674653 -120.42568349 51.89948118 -117.80078125 50.73828125 C-116.94395752 50.35164307 -116.08713379 49.96500488 -115.2043457 49.56665039 C-114.25003662 49.15278076 -113.29572754 48.73891113 -112.3125 48.3125 C-111.27633545 47.85029053 -110.2401709 47.38808105 -109.17260742 46.91186523 C-106.14022403 45.56406718 -103.10248177 44.22986762 -100.06152344 42.90161133 C-97.12586888 41.61769704 -94.19368486 40.32593486 -91.26118469 39.03483582 C-85.37626901 36.44414225 -79.48945274 33.85782902 -73.59887695 31.2800293 C-59.87834092 25.27514659 -46.18376283 19.21318656 -32.5 13.125 C-31.53260895 12.69462433 -30.5652179 12.26424866 -29.56851196 11.8208313 C-25.21266071 9.88276327 -20.85710408 7.94403571 -16.50195312 6.00439453 C-15.76146729 5.67634827 -15.02098145 5.348302 -14.25805664 5.01031494 C-12.67671224 4.30277916 -11.10076968 3.58310311 -9.52905273 2.85443115 C-8.72991455 2.48722961 -7.93077637 2.12002808 -7.10742188 1.74169922 C-6.39066284 1.40774139 -5.67390381 1.07378357 -4.9354248 0.72970581 C-3 0 -3 0 0 0 Z " fill="#76AC6E" transform="translate(254,76)"/>
<path d="M0 0 C6.79283529 2.99949756 13.83511761 5.38904644 20.81570435 7.91207886 C23.40864102 8.85487441 25.99561249 9.81232798 28.58081055 10.77612305 C29.39403778 11.07906784 30.20726501 11.38201263 31.0451355 11.69413757 C32.58568405 12.26876582 34.12576858 12.8446401 35.66531372 13.42195129 C38.87888956 14.61648983 42.04049182 15.70211997 45.37597656 16.49072266 C45.37597656 17.48072266 45.37597656 18.47072266 45.37597656 19.49072266 C44.42110352 19.84626221 43.46623047 20.20180176 42.48242188 20.56811523 C32.33123828 24.35634901 22.22003308 28.24055989 12.12597656 32.17822266 C11.35837006 32.47764771 10.59076355 32.77707275 9.79989624 33.08557129 C5.05931458 34.93504376 5.05931458 34.93504376 0.31913757 36.78555298 C-4.14920213 38.5295037 -8.62124224 40.26334069 -13.09805298 41.98542786 C-15.09492392 42.75415031 -17.09064127 43.5257845 -19.0859375 44.29858398 C-21.52462696 45.24257734 -23.96531688 46.18142288 -26.40820312 47.11450195 C-28.02130371 47.74159058 -28.02130371 47.74159058 -29.66699219 48.38134766 C-30.60567139 48.74260742 -31.54435059 49.10386719 -32.51147461 49.47607422 C-34.78528221 50.30271228 -34.78528221 50.30271228 -35.62402344 52.49072266 C-35.71691025 54.99309182 -35.74984755 57.46734952 -35.73754883 59.96972656 C-35.73769485 60.74055069 -35.73784088 61.51137482 -35.73799133 62.30555725 C-35.73729333 64.85949494 -35.72950619 67.41336017 -35.72167969 69.96728516 C-35.71981511 71.73562582 -35.71839139 73.50396699 -35.71739197 75.27230835 C-35.71356994 79.93137025 -35.70374231 84.59040108 -35.69268799 89.24945068 C-35.68246713 94.0017454 -35.6778929 98.75404512 -35.67285156 103.50634766 C-35.66211978 112.83448632 -35.64504711 122.16260191 -35.62402344 131.49072266 C-39.35746422 130.65187778 -42.1693616 129.17992461 -45.49121094 127.25244141 C-46.62429687 126.59695312 -47.75738281 125.94146484 -48.92480469 125.26611328 C-49.51213379 124.92298096 -50.09946289 124.57984863 -50.70458984 124.22631836 C-52.4833056 123.18740316 -54.26611216 122.1558307 -56.04980469 121.12548828 C-59.25338542 119.26552058 -62.45338788 117.40634718 -65.62402344 115.49072266 C-66.6606311 114.94111877 -67.69723877 114.39151489 -68.76525879 113.82525635 C-71.62402344 111.49072266 -71.62402344 111.49072266 -72.37246704 108.23402405 C-72.37120819 106.94338547 -72.36994934 105.65274689 -72.36865234 104.32299805 C-72.37595367 103.60868118 -72.383255 102.89436432 -72.39077759 102.15840149 C-72.40696961 99.80075476 -72.37979429 97.44586712 -72.35058594 95.08837891 C-72.34954831 93.44697573 -72.35058535 91.80557004 -72.35360718 90.16416931 C-72.35342782 86.72487249 -72.3325928 83.28651415 -72.29638672 79.84741211 C-72.25104536 75.44431898 -72.24991748 71.04259883 -72.26342201 66.63933659 C-72.27011405 63.24970858 -72.25681799 59.86039214 -72.23716354 56.47082329 C-72.22947785 54.84776885 -72.22715554 53.2246797 -72.23033524 51.60161018 C-72.23107929 49.32968613 -72.20576774 47.05950345 -72.17333984 44.7878418 C-72.16412506 43.49640762 -72.15491028 42.20497345 -72.14541626 40.87440491 C-71.53143834 36.8898733 -70.49669081 35.27770823 -67.62402344 32.49072266 C-65.56871033 31.31999207 -65.56871033 31.31999207 -63.36206055 30.54614258 C-62.53117416 30.24620895 -61.70028778 29.94627533 -60.84422302 29.63725281 C-59.9555806 29.33495255 -59.06693817 29.03265228 -58.15136719 28.72119141 C-57.23190811 28.39532547 -56.31244904 28.06945953 -55.36512756 27.73371887 C-53.42692706 27.05000683 -51.48604294 26.37386105 -49.54272461 25.70483398 C-46.56328884 24.67883059 -43.59231075 23.63090599 -40.62207031 22.57861328 C-38.73645359 21.91652018 -36.85040002 21.25566965 -34.96386719 20.59619141 C-34.07320053 20.28376999 -33.18253387 19.97134857 -32.26487732 19.64945984 C-31.02327599 19.22320061 -31.02327599 19.22320061 -29.7565918 18.78833008 C-29.02919296 18.53693771 -28.30179413 18.28554535 -27.55235291 18.02653503 C-25.62402344 17.49072266 -25.62402344 17.49072266 -22.62402344 17.49072266 C-22.62402344 16.83072266 -22.62402344 16.17072266 -22.62402344 15.49072266 C-23.25824219 15.40564453 -23.89246094 15.32056641 -24.54589844 15.23291016 C-28.88215384 14.18736634 -32.804013 12.41815585 -36.87402344 10.61572266 C-37.70160156 10.26380859 -38.52917969 9.91189453 -39.38183594 9.54931641 C-40.16816406 9.20255859 -40.95449219 8.85580078 -41.76464844 8.49853516 C-42.48168945 8.1854541 -43.19873047 7.87237305 -43.9375 7.54980469 C-45.62402344 6.49072266 -45.62402344 6.49072266 -46.62402344 3.49072266 C-29.79157769 -3.2835471 -17.13817268 -8.05284016 0 0 Z " fill="#5E92B0" transform="translate(98.6240234375,50.50927734375)"/>
<path d="M0 0 C0.75087891 0.40283203 1.50175781 0.80566406 2.27539062 1.22070312 C3.04431641 1.64158203 3.81324219 2.06246094 4.60546875 2.49609375 C5.39373047 2.92083984 6.18199219 3.34558594 6.99414062 3.78320312 C8.93030655 4.82755929 10.86302242 5.87780145 12.79296875 6.93359375 C12.79296875 7.59359375 12.79296875 8.25359375 12.79296875 8.93359375 C12.01405273 9.16868652 11.23513672 9.4037793 10.43261719 9.64599609 C2.25009057 12.13680689 -5.86732284 14.78180597 -13.95703125 17.55859375 C-15.71660156 18.15027344 -15.71660156 18.15027344 -17.51171875 18.75390625 C-18.62289063 19.13546875 -19.7340625 19.51703125 -20.87890625 19.91015625 C-22.3808252 20.4218335 -22.3808252 20.4218335 -23.91308594 20.94384766 C-26.363001 21.70880056 -26.363001 21.70880056 -27.20703125 23.93359375 C-27.29917756 26.24147249 -27.32452522 28.55210225 -27.32055664 30.86181641 C-27.32070267 31.57411911 -27.32084869 32.28642181 -27.32099915 33.02030945 C-27.32030136 35.37945581 -27.31251522 37.73852364 -27.3046875 40.09765625 C-27.30282285 41.73147539 -27.30139917 43.36529509 -27.30039978 44.99911499 C-27.29657834 49.30307555 -27.28675123 53.60700246 -27.2756958 57.91094971 C-27.26547367 62.30130559 -27.26090044 66.6916669 -27.25585938 71.08203125 C-27.24512864 79.69923421 -27.22805668 88.31640979 -27.20703125 96.93359375 C-30.25969202 96.22292508 -32.57967974 95.29036228 -35.28125 93.68359375 C-36.40563477 93.0184375 -36.40563477 93.0184375 -37.55273438 92.33984375 C-38.32552734 91.87578125 -39.09832031 91.41171875 -39.89453125 90.93359375 C-41.07112305 90.2375 -41.07112305 90.2375 -42.27148438 89.52734375 C-48.04858242 86.09204258 -48.04858242 86.09204258 -49.20703125 84.93359375 C-49.3172571 82.67995173 -49.35618021 80.42280807 -49.36816406 78.16650391 C-49.37312897 77.45916611 -49.37809387 76.75182831 -49.38320923 76.02305603 C-49.39786613 73.67291303 -49.40463885 71.32283753 -49.41015625 68.97265625 C-49.41590504 67.34459429 -49.4216628 65.71653236 -49.4274292 64.08847046 C-49.4379494 60.67030521 -49.4437853 57.25216355 -49.44726562 53.83398438 C-49.4527509 49.44993027 -49.47677513 45.06618668 -49.50523758 40.68223 C-49.52384488 37.31766851 -49.52906854 33.95318206 -49.5306015 30.58857346 C-49.53363317 28.97220538 -49.54167896 27.35583879 -49.55478668 25.73952103 C-49.57180704 23.47926357 -49.56997714 21.21976786 -49.56347656 18.95947266 C-49.56712219 17.67231354 -49.57076782 16.38515442 -49.57452393 15.05899048 C-49.20703125 11.93359375 -49.20703125 11.93359375 -47.9133606 10.08560181 C-44.89538997 8.04805467 -41.43441155 7.08571066 -37.99609375 5.98046875 C-37.1909433 5.71598938 -36.38579285 5.45151001 -35.5562439 5.17901611 C-33.8547494 4.62319993 -32.15170847 4.07209871 -30.44726562 3.52539062 C-27.84362894 2.68732684 -25.24804582 1.82712476 -22.65234375 0.96484375 C-20.99653446 0.42702667 -19.3402975 -0.10947583 -17.68359375 -0.64453125 C-16.90948151 -0.90276672 -16.13536926 -1.1610022 -15.33779907 -1.42706299 C-9.30423536 -3.33150606 -5.62934082 -3.05101678 0 0 Z " fill="#C0D854" transform="translate(49.20703125,61.06640625)"/>
<path d="M0 0 C0.66 0 1.32 0 2 0 C2 5.94 2 11.88 2 18 C0.68 17.34 -0.64 16.68 -2 16 C-1.34 16 -0.68 16 0 16 C0 10.72 0 5.44 0 0 Z " fill="#7BAEC4" transform="translate(117,197)"/>
<path d="M0 0 C2.31 0.33 4.62 0.66 7 1 C7 1.66 7 2.32 7 3 C5.02 3.33 3.04 3.66 1 4 C0.67 2.68 0.34 1.36 0 0 Z " fill="#425C88" transform="translate(239,67)"/>
<path d="" fill="#F6B1A7" transform="translate(0,0)"/>
</svg>
